<svg xmlns="http://www.w3.org/2000/svg" style="stroke-linecap:round;stroke-linejoin:round" viewBox="0 0 459 107">
  <path d="M455.42 40.64c0 3.75-1.49 7.66-4.48 10.02a14.38 14.38 0 0 1-8.83 2.92c-10.42 0-12.94-8.68-12.98-13.6 0-.07.05-.13.13-.13h4.9c.07 0 .12.06.13.13 0 .54.4 2.72.44 2.86a8.12 8.12 0 0 0 3.43 4.87 8.44 8.44 0 0 0 8.23.1c4.87-2.6 5.18-10.24.33-13.03-2.26-1.3-5-1.56-7.55-1.57a.12.12 0 0 1-.13-.13v-4.4c0-.09.07-.14.15-.12.67.13 3.3-.09 3.5-.13 2.2-.38 4.12-1.63 4.74-3.88A5.12 5.12 0 0 0 442.3 18c-1.9 0-5.24 1.16-5.3 6.46 0 .07-.04.13-.1.13-.67-.01-4.05-.05-5.07 0-.07 0-.12-.06-.12-.13.04-1.25.63-11.2 10.93-11.2 10.89 0 12.76 13.01 6.86 17.25a.12.12 0 0 0 0 .2c.98.57 5.9 3.77 5.9 9.93Zm-32.07 10.8v27.51h-6.22V52.8c0-10.44-4.43-17.54-14.74-17.36-9.45.09-14.9 6.11-14.9 16.19v27.33h-6.31V30.57h6.37c0 2.7 0 3.62-.09 6.86 0 0 4.48-7.88 15.8-7.88 11.33 0 20.1 8.34 20.1 21.89Zm-45.89 5.68H333.6c1.1 9.74 9.18 17.3 18.98 17.3 7.63 0 14.2-4.6 17.26-11.21h6.3a25.01 25.01 0 0 1-23.56 16.9c-13.8 0-25-11.32-25-25.28 0-13.97 11.2-25.29 25-25.29s25 11.32 25 25.29c0 .77-.05 1.54-.12 2.3Zm-24.88-21.89c-9.47 0-17.3 7.06-18.84 16.32h37.67c-1.53-9.26-9.37-16.31-18.83-16.31Zm-28.98 21.9h-43.86c1.1 9.73 9.18 17.29 18.98 17.29 7.63 0 14.2-4.6 17.26-11.21h6.3a25.01 25.01 0 0 1-23.56 16.9c-13.8 0-25-11.32-25-25.28 0-13.97 11.2-25.29 25-25.29s25 11.32 25 25.29c0 .77-.05 1.54-.12 2.3Zm-24.88-21.9c-9.47 0-17.3 7.06-18.83 16.32h37.66c-1.53-9.26-9.37-16.31-18.83-16.31Zm-22.66-4.3v5.43h-11.57v42.82h-6.22V13.96h6.22v16.97h11.57Zm-20.6-1.17v6.65c-8.73 0-13.6 5.93-13.6 17.06v25.7h-6.14V31.13h5.88v6.95c0 .04.05.05.06.02.4-1.27 3.18-8.33 13.8-8.33Zm-30.76 1.17h6.21v48.25h-6.21V30.93Zm0-16.99h6.21V25.1h-6.21V13.93Zm-4.1 37.5v27.51h-6.22V52.8c0-9.27-4.43-17.54-14.74-17.36-9.46.09-14.91 6.11-14.91 16.19v27.33h-6.3V13.9h6.22c0 2.7 0 20.29-.09 23.53 0 0 3.95-7.88 15.95-7.88 11.33 0 20.09 8.34 20.09 21.89ZM154 19.9h-14.85v-6h36.13v6h-14.64V79H154V19.9Zm-66.57-9.26c4.66 15.08 13.51 30.55 27.26 45.3-4.43 15.07-13.28 30.92-27.26 46.41-13.98-15.5-22.84-31.34-27.27-46.41 13.75-14.75 22.6-30.22 27.27-45.3Zm-5.03 91.58c-15.39-3.5-33.21-3.57-52.86.96C18.71 91.82 9.41 76.23 3 56.38c20.4-4.37 38.55-4.11 53.82-.4 5.9 19.27 14.87 34.68 25.6 46.25ZM5.61 52.1C16.34 40.5 25.3 25.1 31.2 5.83c15.27-3.7 33.42-3.96 53.82.4C78.6 26.09 69.3 41.68 58.46 53.05 38.82 48.52 21 48.59 5.6 52.09Z" style="stroke:#fff;stroke-width:6px"/>
  <path d="M455.42 40.64c0 3.75-1.49 7.66-4.48 10.02a14.38 14.38 0 0 1-8.83 2.92c-10.42 0-12.94-8.68-12.98-13.6 0-.07.05-.13.13-.13h4.9c.07 0 .12.06.13.13 0 .54.4 2.72.44 2.86a8.12 8.12 0 0 0 3.43 4.87 8.44 8.44 0 0 0 8.23.1c4.87-2.6 5.18-10.24.33-13.03-2.26-1.3-5-1.56-7.55-1.57a.12.12 0 0 1-.13-.13v-4.4c0-.09.07-.14.15-.12.67.13 3.3-.09 3.5-.13 2.2-.38 4.12-1.63 4.74-3.88A5.12 5.12 0 0 0 442.3 18c-1.9 0-5.24 1.16-5.3 6.46 0 .07-.04.13-.1.13-.67-.01-4.05-.05-5.07 0-.07 0-.12-.06-.12-.13.04-1.25.63-11.2 10.93-11.2 10.89 0 12.76 13.01 6.86 17.25a.12.12 0 0 0 0 .2c.98.57 5.9 3.77 5.9 9.93m-32.06 10.8v27.51h-6.22V52.8c0-10.44-4.43-17.54-14.74-17.36-9.45.09-14.9 6.11-14.9 16.19v27.33h-6.31V30.57h6.37c0 2.7 0 3.62-.08 6.86 0 0 4.48-7.89 15.8-7.89s20.08 8.35 20.08 21.9m-70.77-16.2c9.47 0 17.3 7.05 18.83 16.3h-37.66c1.52-9.25 9.36-16.3 18.83-16.3Zm22.32 21.88h2.56c.07-.75.12-1.52.12-2.3 0-13.96-11.2-25.28-25-25.28s-25 11.32-25 25.29c0 13.96 11.2 25.28 25 25.28a25 25 0 0 0 23.56-16.9h-6.3a19.08 19.08 0 0 1-17.26 11.2c-9.8 0-17.87-7.55-18.98-17.29h41.3m-76.18-21.89c9.46 0 17.3 7.06 18.83 16.31H279.9c1.52-9.25 9.36-16.3 18.83-16.3Zm22.32 21.9h2.56c.07-.76.12-1.53.12-2.3 0-13.97-11.2-25.29-25-25.29s-25 11.32-25 25.29c0 13.96 11.2 25.28 25 25.28a25 25 0 0 0 23.56-16.9h-6.3a19.08 19.08 0 0 1-17.26 11.2c-9.8 0-17.87-7.55-18.98-17.29h41.3m-44.98-26.2h-11.57V13.97h-6.21v65.22h6.21V36.36h11.57v-5.43m-20.6-1.17v6.65c-8.73 0-13.6 5.93-13.6 17.06v25.7h-6.14V31.13h5.88v6.95c0 .04.05.05.06.01.4-1.26 3.18-8.32 13.8-8.32m-30.76 1.17h6.21v48.25h-6.21V30.93m0-16.99h6.21v11.15h-6.21V13.94m-4.1 37.5v27.51h-6.22V52.8c0-9.27-4.43-17.54-14.74-17.36-9.46.09-14.91 6.11-14.91 16.19v27.33h-6.3V13.9h6.22c0 2.7 0 20.29-.09 23.53 0 0 3.95-7.89 15.95-7.89 11.33 0 20.09 8.35 20.09 21.9M154 19.9h-14.85v-6h36.13v6h-14.64V79H154V19.9" style="fill:#211d1d"/>
  <path d="M87.44 10.65c4.66 15.08 13.51 30.55 27.26 45.3-4.43 15.07-13.28 30.92-27.26 46.41-13.98-15.5-22.84-31.34-27.26-46.41 13.74-14.75 22.6-30.22 27.26-45.3" style="fill:#b42432"/>
  <path d="M82.41 102.23c-15.39-3.5-33.21-3.57-52.86.96C18.71 91.82 9.41 76.23 3 56.38c20.4-4.37 38.55-4.11 53.83-.4 5.9 19.27 14.86 34.68 25.6 46.25" style="fill:#b42432"/>
  <path d="M5.6 52.09C16.35 40.5 25.3 25.1 31.2 5.83c15.28-3.7 33.43-3.96 53.84.4C78.6 26.1 69.3 41.68 58.46 53.05 38.82 48.52 21 48.59 5.6 52.09" style="fill:#b42432"/>
</svg>